<svg title="Veronica" xmlns="http://www.w3.org/2000/svg" viewBox="0 0 250 250" stroke-width="0">
  <g>
    <path
      d="M127.08 0c.35.29.64.68 1.04.85 6.98 3.1 14.18 5.59 21.69 7.26 4.66 1.03 9.37 1.91 13.92 3.25 10.75 3.17 20.34 8.32 27.67 16.7 4.5 5.15 7.33 11.25 8.42 17.84 1.37 8.27 1.42 16.6-1.52 24.68-1.72 4.74-3.74 9.34-6.78 13.47-.45.61-.74 1.32-1.33 2.39 2.47-.22 4.55-.22 6.54-.62 7.06-1.44 13.89-.26 20.61 1.62 9.58 2.69 16.9 8.36 22.38 16.33 4.66 6.78 7.48 14.23 8.32 22.26.68 6.6.78 13.26 1.2 19.89.15 2.31.6 4.6.72 6.9.07 1.22.09 2.65-.48 3.67-3.64 6.44-7.16 12.97-11.28 19.12-4.65 6.94-9.08 14.07-15.46 19.84-6.67 6.03-14.41 9.21-23.55 8.68-5.98-.35-11.76-1.84-17.27-4.21-6.67-2.87-12.79-6.55-18.32-11.14-1.41-1.17-2.88-2.29-4.58-3.63-.06.72-.19 1.19-.13 1.64.7 5.6.29 11.2-.38 16.76-.5 4.14-1.28 8.28-2.42 12.3-1.99 6.98-5.36 13.35-10.27 18.94-4.74 5.4-10.48 9.61-16.67 13.32-.4.24-.8.49-1.16.78-1.72 1.44-3.35 1.5-5.03.02-5.74-5.05-11.27-10.26-15.99-16.27-5.39-6.86-9.84-14.19-12.72-22.31-2.12-6-3.71-12.15-3.27-18.59.06-.89.14-1.77.25-3.06-.77.51-1.3.72-1.63 1.09-4.98 5.63-11.76 8.32-18.84 10.4-2.32.68-4.85.84-7.3.98-7.66.43-15.14-.36-22.23-3.46-3.27-1.43-6.72-2.5-9.93-4.04-5.25-2.53-9.81-5.95-13.84-10.12-4.23-4.38-6.56-9.77-9.37-14.91-2.4-4.39-4.64-8.86-6.99-13.28-.19-.36-.73-.56-1.1-.83v-1.09c.56-.52 1.25-.96 1.67-1.57.95-1.39 2.27-2.78 2.55-4.32.92-5.05 1.44-10.17 2.11-15.26.63-4.73 1.07-9.5 1.97-14.18.76-3.97 2.24-7.77 4.25-11.39 3.05-5.47 7.2-9.91 12.68-13.19 5.34-3.19 11.21-5.16 17.35-6.19 4.75-.8 9.58-1.13 14.37-1.66 1.23-.13 2.47-.19 4.01-.3-.75-1.28-1.29-2.22-1.84-3.17-4.16-7.17-7.49-14.56-7.87-22.96-.28-6.17-.21-12.18 1.94-18.16 2.4-6.68 6.15-12.39 11.47-17.16 7.49-6.72 16.43-11 26.18-13.76 7.76-2.2 15.58-4.22 23.38-6.28 4.01-1.06 8.04-2.04 12.05-3.1.32-.08.54-.51.8-.78Zm64.38 55.58c.44-4.92-.21-9.52-2.05-13.96-3-7.29-8.14-12.79-15.26-16.52-3.69-1.93-7.44-3.91-11.41-5.12-6.07-1.85-12.34-3.1-18.54-4.54-5.82-1.36-11.53-2.97-16.76-5.86-.4-.22-1.03-.24-1.48-.13-3.02.76-6.01 1.6-9.02 2.39-5.93 1.56-11.84 3.17-17.79 4.64-8.47 2.1-16.52 5.11-23.7 9.96-5.73 3.87-10.31 8.78-13.11 15-3.13 6.94-3.01 14.3-1.73 21.51 1.73 9.73 6.98 17.93 13.85 25.13 4.06 4.26 8.4 8.29 12.63 12.4 1.97 1.91 4.02 3.74 5.99 5.64 1.6 1.54 3.16 3.12 4.72 4.71.63.65.55 1.25-.16 1.88-1.14 1.02-2.27 2.08-3.31 3.19-1.38 1.48-1.85 1.55-3.39.28-.43-.36-.84-.74-1.25-1.12-4.76-4.52-9.51-9.04-14.28-13.56-5.24-4.97-11.53-7.61-18.93-7.46-2.73.06-5.46.5-8.18.8-5.66.64-11.06 2.14-16.02 4.87-8.46 4.66-13.33 11.78-15.28 20.87-1.56 7.28-2.08 14.68-2.86 22.05-.35 3.29-.78 6.63-2.57 9.58-.88 1.45-.87 2.72-.05 4.22 2.67 4.87 5.32 9.76 7.81 14.72 2.67 5.33 6.68 9.42 11.81 12.62 4.61 2.88 9.57 5.04 14.71 6.79 4.47 1.53 9.16 2.64 13.9 2.54 11.93-.24 21.47-5.09 28.26-14.62 2.84-3.98 5.63-8.01 8.26-12.12 2.28-3.56 4.29-7.27 6.47-10.89.14-.24.85-.42 1.12-.29 2.07 1 4.15 2.01 6.12 3.18.42.25.76 1.27.56 1.71-1.2 2.76-2.6 5.44-3.87 8.18-.91 1.95-1.96 3.87-2.55 5.92-1.39 4.81-2.56 9.69-3.78 14.55-.22.88-.31 1.8-.37 2.7-.52 7.37 1.44 14.28 4.48 20.92 2.5 5.48 5.62 10.67 9.55 15.32 3.22 3.81 6.81 7.34 10.25 10.97.94.99 1.87.98 3.12.22 6.13-3.78 11.17-8.55 15.05-14.48 3.02-4.6 5.09-9.57 6.08-14.9.76-4.07 1.29-8.18 1.63-12.3.47-5.6.56-11.2-1.87-16.52-1.37-3-2.7-6.02-4.15-8.98-2.06-4.21-4.17-8.37-5.11-12.99-.18-.87.04-1.27.86-1.54 2.15-.69 4.31-1.38 6.43-2.14.86-.31 1.21.03 1.5.72.38.93.7 1.91 1.25 2.74 2.29 3.5 4.4 7.15 7.05 10.4 5.13 6.28 10.74 12.15 17.62 16.79 7.36 4.97 15.29 8.55 24.25 9.84 4.02.58 7.96-.06 11.52-1.67 5.47-2.47 9.52-6.68 13.16-11.25 7-8.81 12.11-18.69 17.64-28.34.34-.59.39-1.4.36-2.1-.16-3.41-.51-6.82-.59-10.23-.19-7.87-.19-15.74-2.87-23.34-1.82-5.17-3.92-10.15-7.97-14.15-3.2-3.15-6.57-6.17-10.91-7.73-7.63-2.73-15.48-3.58-23.6-2.15-5.65 1-10.65 3.11-15.1 6.56-5.97 4.64-11.96 9.27-17.98 13.86-.25.19-1.01.15-1.24-.06-1.49-1.4-2.87-2.91-4.36-4.32-1.04-.98-.99-1.91-.08-2.86 1.22-1.27 2.48-2.51 3.77-3.72 3.49-3.28 6.9-6.65 10.53-9.78 5.67-4.9 10.95-10.13 14.92-16.4 1.8-2.85 3.23-5.98 4.4-9.13 1.58-4.26 2.56-8.68 1.91-13.09Z" />
    <path
      d="M122.23 46.2V20.83h7.55c.31 8.66-.23 17.19.3 25.69.19.06.39.13.58.19.5-.54 1.07-1.04 1.5-1.63 1.65-2.25 3.52-4.28 5.93-5.83 8.79-5.63 21.02-2.46 25.01 6.41.56 1.25 1.05 2.52 1.58 3.78.29.68 0 1.04-.69 1.18-1.71.34-3.42.69-5.14 1.01-.87.16-1.28-.16-1.64-1.03-.83-2.02-1.87-3.89-3.79-5.3-3.96-2.92-11.55-.91-14.01 2.13-5.02 6.22-7.5 13.22-6.55 21.03.57 4.66 2.92 8.61 7.48 11.02 1.87.99 3.5.78 5.17-.34 1.59-1.07 2.6-.89 3.92.52.7.74 1.48 1.41 2.23 2.11 1.15 1.07 1.11 1.76-.19 2.62-7.32 4.9-13.13 3.98-19.43-1.62-.62-.55-1.16-1.18-2.03-2.08-.09.77-.18 1.14-.18 1.5 0 7.11.03 14.22 0 21.33 0 1.54.56 2.72 1.88 3.61 5.53 3.68 11.03 7.4 16.57 11.07 2.11 1.39 2.27 1.55 1.4 3.86-.97 2.56-2.18 5.04-3.1 7.62-.87 2.44-1.45 4.98-2.21 7.46-.93 3.01-1.86 6.01-2.91 8.98-.15.42-.95.91-1.45.9-6.97-.03-13.95-.2-20.92-.21-2.74 0-5.48.3-8.36.47-.18-1.1-.25-2.23-.56-3.31-.9-3.15-1.78-6.32-2.86-9.42-1.56-4.49-3.25-8.93-4.94-13.37-.45-1.19-.17-1.81.94-2.56 5.97-4.03 11.85-8.19 17.79-12.26.97-.67 1.24-1.45 1.24-2.55-.04-6.11-.03-12.21-.01-18.32 0-1.2.12-2.4.18-3.59l-.39-.24c-.52.39-1.03.8-1.57 1.17-1.73 1.19-3.38 2.51-5.21 3.52-3.21 1.76-6.61 1.39-9.89.18-1.53-.56-2.93-1.49-4.33-2.34-1.14-.69-1.19-1.31-.29-2.2a93.7 93.7 0 0 1 3.57-3.33c.21-.18.68-.23.98-.15.54.14 1.05.42 1.56.65 3.45 1.53 6.21.92 8.7-1.89 3.05-3.43 4.26-7.44 4.19-11.87-.09-6.18-1.79-11.85-5.87-16.74-2.13-2.56-4.57-4.65-8.21-4.82-3.95-.19-7.49.89-9.24 4.69-1.67 3.63-1.91 3.66-6.89 2.41-.18-.05-.36-.11-.54-.16-1.71-.52-1.78-.66-.95-2.15 1.12-2 2.07-4.12 3.44-5.96 2.45-3.31 5.75-5.48 10.1-5.95 6.54-.71 12.22.98 16.8 5.62.74.75 1.32 1.65 1.98 2.48.42.52.85 1.03 1.28 1.55.17-.05.34-.11.51-.16Zm8.09 91.07c.66 0 1.33-.04 1.99 0 1.2.1 1.81-.37 2.09-1.52.36-1.53.84-3.04 1.37-4.53.78-2.19 1.65-4.35 2.47-6.53.23-.61.7-1.19-.2-1.77-3.85-2.49-7.67-5.03-11.49-7.56-.7-.46-1.18-.39-1.87.12-3.18 2.36-6.4 4.68-9.67 6.93-.91.63-1.26 1.17-.86 2.24 1.47 3.88 2.83 7.81 4.32 11.69.15.4.87.86 1.34.86 3.5.07 7.01.04 10.51.04Z" />
  </g>
</svg>